{
    "asset" : {
        "generator" : "Khronos glTF Blender I/O v1.4.40",
        "version" : "2.0"
    },
    "scene" : 0,
    "scenes" : [
        {
            "name" : "Scene",
            "nodes" : [
                0
            ]
        }
    ],
    "nodes" : [
        {
            "mesh" : 0,
            "name" : "Cylinder",
            "rotation" : [
                0.7071067690849304,
                0,
                0,
                0.7071068286895752
            ],
            "scale" : [
                0.6383089423179626,
                4.803358554840088,
                0.6383089423179626
            ],
            "translation" : [
                0,
                0.6427805423736572,
                0.6568547487258911
            ]
        }
    ],
    "materials" : [
        {
            "doubleSided" : true,
            "name" : "Material.001",
            "pbrMetallicRoughness" : {}
        },
        {
            "doubleSided" : true,
            "name" : "Material.003",
            "pbrMetallicRoughness" : {}
        },
        {
            "doubleSided" : true,
            "name" : "Material.002",
            "pbrMetallicRoughness" : {}
        },
        {
            "doubleSided" : true,
            "emissiveFactor" : [
                1,
                0.5656059980392456,
                0.5000013113021851
            ],
            "name" : "Material.005",
            "pbrMetallicRoughness" : {}
        }
    ],
    "meshes" : [
        {
            "name" : "Cylinder",
            "primitives" : [
                {
                    "attributes" : {
                        "POSITION" : 0,
                        "NORMAL" : 1,
                        "TEXCOORD_0" : 2
                    },
                    "indices" : 3,
                    "material" : 0
                },
                {
                    "attributes" : {
                        "POSITION" : 4,
                        "NORMAL" : 5,
                        "TEXCOORD_0" : 6
                    },
                    "indices" : 7,
                    "material" : 1
                },
                {
                    "attributes" : {
                        "POSITION" : 8,
                        "NORMAL" : 9,
                        "TEXCOORD_0" : 10
                    },
                    "indices" : 11,
                    "material" : 2
                },
                {
                    "attributes" : {
                        "POSITION" : 12,
                        "NORMAL" : 13,
                        "TEXCOORD_0" : 14
                    },
                    "indices" : 15,
                    "material" : 3
                }
            ]
        }
    ],
    "accessors" : [
        {
            "bufferView" : 0,
            "componentType" : 5126,
            "count" : 23648,
            "max" : [
                1.1444865465164185,
                0.9021493196487427,
                1.1444865465164185
            ],
            "min" : [
                -1.144486665725708,
                -0.9520056843757629,
                -1.2417912483215332
            ],
            "type" : "VEC3"
        },
        {
            "bufferView" : 1,
            "componentType" : 5126,
            "count" : 23648,
            "type" : "VEC3"
        },
        {
            "bufferView" : 2,
            "componentType" : 5126,
            "count" : 23648,
            "type" : "VEC2"
        },
        {
            "bufferView" : 3,
            "componentType" : 5123,
            "count" : 93696,
            "type" : "SCALAR"
        },
        {
            "bufferView" : 4,
            "componentType" : 5126,
            "count" : 2667,
            "max" : [
                0.3826836347579956,
                0.6978995203971863,
                0.34701913595199585
            ],
            "min" : [
                -0.3826819062232971,
                -0.8473454117774963,
                -1.3113692998886108
            ],
            "type" : "VEC3"
        },
        {
            "bufferView" : 5,
            "componentType" : 5126,
            "count" : 2667,
            "type" : "VEC3"
        },
        {
            "bufferView" : 6,
            "componentType" : 5126,
            "count" : 2667,
            "type" : "VEC2"
        },
        {
            "bufferView" : 7,
            "componentType" : 5123,
            "count" : 10512,
            "type" : "SCALAR"
        },
        {
            "bufferView" : 8,
            "componentType" : 5126,
            "count" : 367,
            "max" : [
                1.144486665725708,
                0.8508895635604858,
                1.1444865465164185
            ],
            "min" : [
                -1.144486665725708,
                0.7608604431152344,
                -1.1444867849349976
            ],
            "type" : "VEC3"
        },
        {
            "bufferView" : 9,
            "componentType" : 5126,
            "count" : 367,
            "type" : "VEC3"
        },
        {
            "bufferView" : 10,
            "componentType" : 5126,
            "count" : 367,
            "type" : "VEC2"
        },
        {
            "bufferView" : 11,
            "componentType" : 5123,
            "count" : 1152,
            "type" : "SCALAR"
        },
        {
            "bufferView" : 12,
            "componentType" : 5126,
            "count" : 756,
            "max" : [
                0.38170695304870605,
                -0.9006426930427551,
                0.38170674443244934
            ],
            "min" : [
                -0.3817068040370941,
                -3.1943840980529785,
                -0.38170844316482544
            ],
            "type" : "VEC3"
        },
        {
            "bufferView" : 13,
            "componentType" : 5126,
            "count" : 756,
            "type" : "VEC3"
        },
        {
            "bufferView" : 14,
            "componentType" : 5126,
            "count" : 756,
            "type" : "VEC2"
        },
        {
            "bufferView" : 15,
            "componentType" : 5123,
            "count" : 768,
            "type" : "SCALAR"
        }
    ],
    "bufferViews" : [
        {
            "buffer" : 0,
            "byteLength" : 283776,
            "byteOffset" : 0
        },
        {
            "buffer" : 0,
            "byteLength" : 283776,
            "byteOffset" : 283776
        },
        {
            "buffer" : 0,
            "byteLength" : 189184,
            "byteOffset" : 567552
        },
        {
            "buffer" : 0,
            "byteLength" : 187392,
            "byteOffset" : 756736
        },
        {
            "buffer" : 0,
            "byteLength" : 32004,
            "byteOffset" : 944128
        },
        {
            "buffer" : 0,
            "byteLength" : 32004,
            "byteOffset" : 976132
        },
        {
            "buffer" : 0,
            "byteLength" : 21336,
            "byteOffset" : 1008136
        },
        {
            "buffer" : 0,
            "byteLength" : 21024,
            "byteOffset" : 1029472
        },
        {
            "buffer" : 0,
            "byteLength" : 4404,
            "byteOffset" : 1050496
        },
        {
            "buffer" : 0,
            "byteLength" : 4404,
            "byteOffset" : 1054900
        },
        {
            "buffer" : 0,
            "byteLength" : 2936,
            "byteOffset" : 1059304
        },
        {
            "buffer" : 0,
            "byteLength" : 2304,
            "byteOffset" : 1062240
        },
        {
            "buffer" : 0,
            "byteLength" : 9072,
            "byteOffset" : 1064544
        },
        {
            "buffer" : 0,
            "byteLength" : 9072,
            "byteOffset" : 1073616
        },
        {
            "buffer" : 0,
            "byteLength" : 6048,
            "byteOffset" : 1082688
        },
        {
            "buffer" : 0,
            "byteLength" : 1536,
            "byteOffset" : 1088736
        }
    ],
    "buffers" : [
        {
            "byteLength" : 1090272,
            "uri" : "data:application/octet-stream;base64,"
        }
    ]
}
